<svg width="29" height="27" viewBox="0 0 29 27" fill="none" xmlns="http://www.w3.org/2000/svg">
<g clip-path="url(#clip0_1_473)">
<path d="M8.11938 8.31695L20.1193 8.35707M8.106 12.3169L14.106 12.337M1.09931 14.3068C1.09218 16.4402 2.58328 18.3038 4.69423 18.6216C6.19882 18.8479 7.71958 19.0224 9.25652 19.1421C9.72307 19.1784 10.1489 19.4251 10.4076 19.814L14.0625 25.3369L17.7542 19.8385C17.8837 19.6474 18.0551 19.4881 18.2554 19.3731C18.4556 19.258 18.6794 19.19 18.9098 19.1744C20.437 19.0655 21.9599 18.9021 23.4755 18.6844C25.5885 18.3807 27.092 16.5284 27.0992 14.3924L27.126 6.36849C27.1331 4.2325 25.6421 2.37018 23.5311 2.05245C20.4233 1.58567 17.2854 1.34657 14.1427 1.33705C10.9535 1.32639 7.81667 1.54924 4.74985 1.98965C2.63682 2.29325 1.13328 4.14691 1.12614 6.28155L1.09931 14.3055L1.09931 14.3068Z" stroke="white" stroke-width="2" stroke-linecap="round" stroke-linejoin="round"/>
</g>
<defs>
<clipPath id="clip0_1_473">
<rect width="28" height="26" fill="white" transform="translate(0.146118 0.290253) rotate(0.191581)"/>
</clipPath>
</defs>
</svg>
